<?xml version="1.0" standalone="no"?><svg xmlns="http://www.w3.org/2000/svg" viewBox="0 0 1440 320"><path fill="#00cba9" fill-opacity="1" d="M0,256L12,234.7C24,213,48,171,72,170.7C96,171,120,213,144,224C168,235,192,213,216,181.3C240,149,264,107,288,96C312,85,336,107,360,101.3C384,96,408,64,432,58.7C456,53,480,75,504,85.3C528,96,552,96,576,106.7C600,117,624,139,648,133.3C672,128,696,96,720,80C744,64,768,64,792,80C816,96,840,128,864,149.3C888,171,912,181,936,160C960,139,984,85,1008,64C1032,43,1056,53,1080,85.3C1104,117,1128,171,1152,170.7C1176,171,1200,117,1224,85.3C1248,53,1272,43,1296,53.3C1320,64,1344,96,1368,96C1392,96,1416,64,1428,48L1440,32L1440,320L1428,320C1416,320,1392,320,1368,320C1344,320,1320,320,1296,320C1272,320,1248,320,1224,320C1200,320,1176,320,1152,320C1128,320,1104,320,1080,320C1056,320,1032,320,1008,320C984,320,960,320,936,320C912,320,888,320,864,320C840,320,816,320,792,320C768,320,744,320,720,320C696,320,672,320,648,320C624,320,600,320,576,320C552,320,528,320,504,320C480,320,456,320,432,320C408,320,384,320,360,320C336,320,312,320,288,320C264,320,240,320,216,320C192,320,168,320,144,320C120,320,96,320,72,320C48,320,24,320,12,320L0,320Z"></path></svg>