<?xml version="1.0" standalone="no"?><svg xmlns="http://www.w3.org/2000/svg" viewBox="0 0 1440 320"><path fill="#00cba9" fill-opacity="1" d="M0,256L30,250.7C60,245,120,235,180,218.7C240,203,300,181,360,181.3C420,181,480,203,540,181.3C600,160,660,96,720,106.7C780,117,840,203,900,224C960,245,1020,203,1080,192C1140,181,1200,203,1260,202.7C1320,203,1380,181,1410,170.7L1440,160L1440,320L1410,320C1380,320,1320,320,1260,320C1200,320,1140,320,1080,320C1020,320,960,320,900,320C840,320,780,320,720,320C660,320,600,320,540,320C480,320,420,320,360,320C300,320,240,320,180,320C120,320,60,320,30,320L0,320Z"></path></svg>